<?xml version="1.0" encoding="utf-8" standalone="no"?>
<!DOCTYPE svg PUBLIC "-//W3C//DTD SVG 1.1//EN"
  "http://www.w3.org/Graphics/SVG/1.1/DTD/svg11.dtd">
<svg height="720pt" version="1.1" viewBox="0 0 1152 720" width="1152pt" xmlns="http://www.w3.org/2000/svg" xmlns:xlink="http://www.w3.org/1999/xlink">
 <metadata>
  <rdf:RDF xmlns:cc="http://creativecommons.org/ns#" xmlns:dc="http://purl.org/dc/elements/1.1/" xmlns:rdf="http://www.w3.org/1999/02/22-rdf-syntax-ns#">
   <cc:Work>
    <dc:type rdf:resource="http://purl.org/dc/dcmitype/StillImage"/>
    <dc:date>2023-10-24T16:47:34.920317</dc:date>
    <dc:format>image/svg+xml</dc:format>
    <dc:creator>
     <cc:Agent>
      <dc:title>Matplotlib v3.4.3, https://matplotlib.org/</dc:title>
     </cc:Agent>
    </dc:creator>
   </cc:Work>
  </rdf:RDF>
 </metadata>
 <defs>
  <style type="text/css">*{stroke-linecap:butt;stroke-linejoin:round;}</style>
 </defs>
 <g id="figure_1">
  <g id="patch_1">
   <path d="M 0 720 
L 1152 720 
L 1152 0 
L 0 0 
z
" style="fill:#ffffff;"/>
  </g>
  <g id="axes_1">
   <g id="patch_2">
    <path d="M 144 640.8 
L 1036.8 640.8 
L 1036.8 86.4 
L 144 86.4 
z
" style="fill:#ffffff;"/>
   </g>
   <g id="PathCollection_1">
    <defs>
     <path d="M 0 1.5 
C 0.397805 1.5 0.77937 1.341951 1.06066 1.06066 
C 1.341951 0.77937 1.5 0.397805 1.5 0 
C 1.5 -0.397805 1.341951 -0.77937 1.06066 -1.06066 
C 0.77937 -1.341951 0.397805 -1.5 0 -1.5 
C -0.397805 -1.5 -0.77937 -1.341951 -1.06066 -1.06066 
C -1.341951 -0.77937 -1.5 -0.397805 -1.5 0 
C -1.5 0.397805 -1.341951 0.77937 -1.06066 1.06066 
C -0.77937 1.341951 -0.397805 1.5 0 1.5 
z
" id="mafc791e770" style="stroke:#0000ff;"/>
    </defs>
    <g clip-path="url(#p630c2a478e)">
     <use style="fill:#0000ff;stroke:#0000ff;" x="184.581818" xlink:href="#mafc791e770" y="615.6"/>
     <use style="fill:#0000ff;stroke:#0000ff;" x="193.630161" xlink:href="#mafc791e770" y="562.331707"/>
     <use style="fill:#0000ff;stroke:#0000ff;" x="202.678504" xlink:href="#mafc791e770" y="517.258537"/>
     <use style="fill:#0000ff;stroke:#0000ff;" x="211.726847" xlink:href="#mafc791e770" y="476.282927"/>
     <use style="fill:#0000ff;stroke:#0000ff;" x="220.77519" xlink:href="#mafc791e770" y="439.404878"/>
     <use style="fill:#0000ff;stroke:#0000ff;" x="229.823533" xlink:href="#mafc791e770" y="406.62439"/>
     <use style="fill:#0000ff;stroke:#0000ff;" x="238.871876" xlink:href="#mafc791e770" y="373.843902"/>
     <use style="fill:#0000ff;stroke:#0000ff;" x="247.920219" xlink:href="#mafc791e770" y="349.258537"/>
     <use style="fill:#0000ff;stroke:#0000ff;" x="256.968562" xlink:href="#mafc791e770" y="324.673171"/>
     <use style="fill:#0000ff;stroke:#0000ff;" x="266.016905" xlink:href="#mafc791e770" y="304.185366"/>
     <use style="fill:#0000ff;stroke:#0000ff;" x="275.065248" xlink:href="#mafc791e770" y="283.697561"/>
     <use style="fill:#0000ff;stroke:#0000ff;" x="284.113591" xlink:href="#mafc791e770" y="267.307317"/>
     <use style="fill:#0000ff;stroke:#0000ff;" x="293.161934" xlink:href="#mafc791e770" y="250.917073"/>
     <use style="fill:#0000ff;stroke:#0000ff;" x="302.210277" xlink:href="#mafc791e770" y="234.526829"/>
     <use style="fill:#0000ff;stroke:#0000ff;" x="311.25862" xlink:href="#mafc791e770" y="222.234146"/>
     <use style="fill:#0000ff;stroke:#0000ff;" x="320.306963" xlink:href="#mafc791e770" y="214.039024"/>
     <use style="fill:#0000ff;stroke:#0000ff;" x="329.355306" xlink:href="#mafc791e770" y="201.746341"/>
     <use style="fill:#0000ff;stroke:#0000ff;" x="338.403649" xlink:href="#mafc791e770" y="193.55122"/>
     <use style="fill:#0000ff;stroke:#0000ff;" x="347.451991" xlink:href="#mafc791e770" y="185.356098"/>
     <use style="fill:#0000ff;stroke:#0000ff;" x="356.500334" xlink:href="#mafc791e770" y="173.063415"/>
     <use style="fill:#0000ff;stroke:#0000ff;" x="365.548677" xlink:href="#mafc791e770" y="168.965854"/>
     <use style="fill:#0000ff;stroke:#0000ff;" x="374.59702" xlink:href="#mafc791e770" y="160.770732"/>
     <use style="fill:#0000ff;stroke:#0000ff;" x="383.645363" xlink:href="#mafc791e770" y="156.673171"/>
     <use style="fill:#0000ff;stroke:#0000ff;" x="392.693706" xlink:href="#mafc791e770" y="152.57561"/>
     <use style="fill:#0000ff;stroke:#0000ff;" x="401.742049" xlink:href="#mafc791e770" y="148.478049"/>
     <use style="fill:#0000ff;stroke:#0000ff;" x="410.790392" xlink:href="#mafc791e770" y="144.380488"/>
     <use style="fill:#0000ff;stroke:#0000ff;" x="419.838735" xlink:href="#mafc791e770" y="140.282927"/>
     <use style="fill:#0000ff;stroke:#0000ff;" x="428.887078" xlink:href="#mafc791e770" y="136.185366"/>
     <use style="fill:#0000ff;stroke:#0000ff;" x="437.935421" xlink:href="#mafc791e770" y="132.087805"/>
     <use style="fill:#0000ff;stroke:#0000ff;" x="446.983764" xlink:href="#mafc791e770" y="132.087805"/>
     <use style="fill:#0000ff;stroke:#0000ff;" x="456.032107" xlink:href="#mafc791e770" y="127.990244"/>
     <use style="fill:#0000ff;stroke:#0000ff;" x="465.08045" xlink:href="#mafc791e770" y="127.990244"/>
     <use style="fill:#0000ff;stroke:#0000ff;" x="474.128793" xlink:href="#mafc791e770" y="123.892683"/>
     <use style="fill:#0000ff;stroke:#0000ff;" x="483.177136" xlink:href="#mafc791e770" y="123.892683"/>
     <use style="fill:#0000ff;stroke:#0000ff;" x="492.225479" xlink:href="#mafc791e770" y="119.795122"/>
     <use style="fill:#0000ff;stroke:#0000ff;" x="501.273822" xlink:href="#mafc791e770" y="119.795122"/>
     <use style="fill:#0000ff;stroke:#0000ff;" x="510.322165" xlink:href="#mafc791e770" y="119.795122"/>
     <use style="fill:#0000ff;stroke:#0000ff;" x="519.370508" xlink:href="#mafc791e770" y="115.697561"/>
     <use style="fill:#0000ff;stroke:#0000ff;" x="528.418851" xlink:href="#mafc791e770" y="115.697561"/>
     <use style="fill:#0000ff;stroke:#0000ff;" x="537.467194" xlink:href="#mafc791e770" y="148.478049"/>
     <use style="fill:#0000ff;stroke:#0000ff;" x="546.515537" xlink:href="#mafc791e770" y="185.356098"/>
     <use style="fill:#0000ff;stroke:#0000ff;" x="555.56388" xlink:href="#mafc791e770" y="222.234146"/>
     <use style="fill:#0000ff;stroke:#0000ff;" x="564.612223" xlink:href="#mafc791e770" y="255.014634"/>
     <use style="fill:#0000ff;stroke:#0000ff;" x="573.660566" xlink:href="#mafc791e770" y="291.892683"/>
     <use style="fill:#0000ff;stroke:#0000ff;" x="582.708908" xlink:href="#mafc791e770" y="316.478049"/>
     <use style="fill:#0000ff;stroke:#0000ff;" x="591.757251" xlink:href="#mafc791e770" y="341.063415"/>
     <use style="fill:#0000ff;stroke:#0000ff;" x="600.805594" xlink:href="#mafc791e770" y="361.55122"/>
     <use style="fill:#0000ff;stroke:#0000ff;" x="609.853937" xlink:href="#mafc791e770" y="386.136585"/>
     <use style="fill:#0000ff;stroke:#0000ff;" x="618.90228" xlink:href="#mafc791e770" y="402.526829"/>
     <use style="fill:#0000ff;stroke:#0000ff;" x="627.950623" xlink:href="#mafc791e770" y="418.917073"/>
     <use style="fill:#0000ff;stroke:#0000ff;" x="636.998966" xlink:href="#mafc791e770" y="435.307317"/>
     <use style="fill:#0000ff;stroke:#0000ff;" x="646.047309" xlink:href="#mafc791e770" y="451.697561"/>
     <use style="fill:#0000ff;stroke:#0000ff;" x="655.095652" xlink:href="#mafc791e770" y="463.990244"/>
     <use style="fill:#0000ff;stroke:#0000ff;" x="664.143995" xlink:href="#mafc791e770" y="476.282927"/>
     <use style="fill:#0000ff;stroke:#0000ff;" x="673.192338" xlink:href="#mafc791e770" y="488.57561"/>
     <use style="fill:#0000ff;stroke:#0000ff;" x="682.240681" xlink:href="#mafc791e770" y="500.868293"/>
     <use style="fill:#0000ff;stroke:#0000ff;" x="691.289024" xlink:href="#mafc791e770" y="509.063415"/>
     <use style="fill:#0000ff;stroke:#0000ff;" x="700.337367" xlink:href="#mafc791e770" y="517.258537"/>
     <use style="fill:#0000ff;stroke:#0000ff;" x="709.38571" xlink:href="#mafc791e770" y="525.453659"/>
     <use style="fill:#0000ff;stroke:#0000ff;" x="718.434053" xlink:href="#mafc791e770" y="533.64878"/>
     <use style="fill:#0000ff;stroke:#0000ff;" x="727.482396" xlink:href="#mafc791e770" y="541.843902"/>
     <use style="fill:#0000ff;stroke:#0000ff;" x="736.530739" xlink:href="#mafc791e770" y="545.941463"/>
     <use style="fill:#0000ff;stroke:#0000ff;" x="745.579082" xlink:href="#mafc791e770" y="554.136585"/>
     <use style="fill:#0000ff;stroke:#0000ff;" x="754.627425" xlink:href="#mafc791e770" y="558.234146"/>
     <use style="fill:#0000ff;stroke:#0000ff;" x="763.675768" xlink:href="#mafc791e770" y="566.429268"/>
     <use style="fill:#0000ff;stroke:#0000ff;" x="772.724111" xlink:href="#mafc791e770" y="570.526829"/>
     <use style="fill:#0000ff;stroke:#0000ff;" x="781.772454" xlink:href="#mafc791e770" y="570.526829"/>
     <use style="fill:#0000ff;stroke:#0000ff;" x="790.820797" xlink:href="#mafc791e770" y="578.721951"/>
     <use style="fill:#0000ff;stroke:#0000ff;" x="799.86914" xlink:href="#mafc791e770" y="578.721951"/>
     <use style="fill:#0000ff;stroke:#0000ff;" x="808.917483" xlink:href="#mafc791e770" y="582.819512"/>
     <use style="fill:#0000ff;stroke:#0000ff;" x="817.965825" xlink:href="#mafc791e770" y="586.917073"/>
     <use style="fill:#0000ff;stroke:#0000ff;" x="827.014168" xlink:href="#mafc791e770" y="586.917073"/>
     <use style="fill:#0000ff;stroke:#0000ff;" x="836.062511" xlink:href="#mafc791e770" y="591.014634"/>
     <use style="fill:#0000ff;stroke:#0000ff;" x="845.110854" xlink:href="#mafc791e770" y="595.112195"/>
     <use style="fill:#0000ff;stroke:#0000ff;" x="854.159197" xlink:href="#mafc791e770" y="595.112195"/>
     <use style="fill:#0000ff;stroke:#0000ff;" x="863.20754" xlink:href="#mafc791e770" y="599.209756"/>
     <use style="fill:#0000ff;stroke:#0000ff;" x="872.255883" xlink:href="#mafc791e770" y="599.209756"/>
     <use style="fill:#0000ff;stroke:#0000ff;" x="881.304226" xlink:href="#mafc791e770" y="599.209756"/>
     <use style="fill:#0000ff;stroke:#0000ff;" x="890.352569" xlink:href="#mafc791e770" y="603.307317"/>
     <use style="fill:#0000ff;stroke:#0000ff;" x="899.400912" xlink:href="#mafc791e770" y="603.307317"/>
     <use style="fill:#0000ff;stroke:#0000ff;" x="908.449255" xlink:href="#mafc791e770" y="603.307317"/>
     <use style="fill:#0000ff;stroke:#0000ff;" x="917.497598" xlink:href="#mafc791e770" y="607.404878"/>
     <use style="fill:#0000ff;stroke:#0000ff;" x="926.545941" xlink:href="#mafc791e770" y="607.404878"/>
     <use style="fill:#0000ff;stroke:#0000ff;" x="935.594284" xlink:href="#mafc791e770" y="607.404878"/>
     <use style="fill:#0000ff;stroke:#0000ff;" x="944.642627" xlink:href="#mafc791e770" y="611.502439"/>
     <use style="fill:#0000ff;stroke:#0000ff;" x="953.69097" xlink:href="#mafc791e770" y="611.502439"/>
     <use style="fill:#0000ff;stroke:#0000ff;" x="962.739313" xlink:href="#mafc791e770" y="611.502439"/>
     <use style="fill:#0000ff;stroke:#0000ff;" x="971.787656" xlink:href="#mafc791e770" y="611.502439"/>
     <use style="fill:#0000ff;stroke:#0000ff;" x="980.835999" xlink:href="#mafc791e770" y="611.502439"/>
     <use style="fill:#0000ff;stroke:#0000ff;" x="989.884342" xlink:href="#mafc791e770" y="611.502439"/>
    </g>
   </g>
   <g id="matplotlib.axis_1">
    <g id="xtick_1">
     <g id="line2d_1">
      <defs>
       <path d="M 0 0 
L 0 3.5 
" id="me4c39eafcb" style="stroke:#000000;stroke-width:0.8;"/>
      </defs>
      <g>
       <use style="stroke:#000000;stroke-width:0.8;" x="184.581818" xlink:href="#me4c39eafcb" y="640.8"/>
      </g>
     </g>
     <g id="text_1">
      <!-- 0 -->
      <g transform="translate(181.400568 655.398438)scale(0.1 -0.1)">
       <defs>
        <path d="M 2034 4250 
Q 1547 4250 1301 3770 
Q 1056 3291 1056 2328 
Q 1056 1369 1301 889 
Q 1547 409 2034 409 
Q 2525 409 2770 889 
Q 3016 1369 3016 2328 
Q 3016 3291 2770 3770 
Q 2525 4250 2034 4250 
z
M 2034 4750 
Q 2819 4750 3233 4129 
Q 3647 3509 3647 2328 
Q 3647 1150 3233 529 
Q 2819 -91 2034 -91 
Q 1250 -91 836 529 
Q 422 1150 422 2328 
Q 422 3509 836 4129 
Q 1250 4750 2034 4750 
z
" id="DejaVuSans-30" transform="scale(0.015625)"/>
       </defs>
       <use xlink:href="#DejaVuSans-30"/>
      </g>
     </g>
    </g>
    <g id="xtick_2">
     <g id="line2d_2">
      <g>
       <use style="stroke:#000000;stroke-width:0.8;" x="319.481323" xlink:href="#me4c39eafcb" y="640.8"/>
      </g>
     </g>
     <g id="text_2">
      <!-- 2 -->
      <g transform="translate(316.300073 655.398438)scale(0.1 -0.1)">
       <defs>
        <path d="M 1228 531 
L 3431 531 
L 3431 0 
L 469 0 
L 469 531 
Q 828 903 1448 1529 
Q 2069 2156 2228 2338 
Q 2531 2678 2651 2914 
Q 2772 3150 2772 3378 
Q 2772 3750 2511 3984 
Q 2250 4219 1831 4219 
Q 1534 4219 1204 4116 
Q 875 4013 500 3803 
L 500 4441 
Q 881 4594 1212 4672 
Q 1544 4750 1819 4750 
Q 2544 4750 2975 4387 
Q 3406 4025 3406 3419 
Q 3406 3131 3298 2873 
Q 3191 2616 2906 2266 
Q 2828 2175 2409 1742 
Q 1991 1309 1228 531 
z
" id="DejaVuSans-32" transform="scale(0.015625)"/>
       </defs>
       <use xlink:href="#DejaVuSans-32"/>
      </g>
     </g>
    </g>
    <g id="xtick_3">
     <g id="line2d_3">
      <g>
       <use style="stroke:#000000;stroke-width:0.8;" x="454.380829" xlink:href="#me4c39eafcb" y="640.8"/>
      </g>
     </g>
     <g id="text_3">
      <!-- 4 -->
      <g transform="translate(451.199579 655.398438)scale(0.1 -0.1)">
       <defs>
        <path d="M 2419 4116 
L 825 1625 
L 2419 1625 
L 2419 4116 
z
M 2253 4666 
L 3047 4666 
L 3047 1625 
L 3713 1625 
L 3713 1100 
L 3047 1100 
L 3047 0 
L 2419 0 
L 2419 1100 
L 313 1100 
L 313 1709 
L 2253 4666 
z
" id="DejaVuSans-34" transform="scale(0.015625)"/>
       </defs>
       <use xlink:href="#DejaVuSans-34"/>
      </g>
     </g>
    </g>
    <g id="xtick_4">
     <g id="line2d_4">
      <g>
       <use style="stroke:#000000;stroke-width:0.8;" x="589.280334" xlink:href="#me4c39eafcb" y="640.8"/>
      </g>
     </g>
     <g id="text_4">
      <!-- 6 -->
      <g transform="translate(586.099084 655.398438)scale(0.1 -0.1)">
       <defs>
        <path d="M 2113 2584 
Q 1688 2584 1439 2293 
Q 1191 2003 1191 1497 
Q 1191 994 1439 701 
Q 1688 409 2113 409 
Q 2538 409 2786 701 
Q 3034 994 3034 1497 
Q 3034 2003 2786 2293 
Q 2538 2584 2113 2584 
z
M 3366 4563 
L 3366 3988 
Q 3128 4100 2886 4159 
Q 2644 4219 2406 4219 
Q 1781 4219 1451 3797 
Q 1122 3375 1075 2522 
Q 1259 2794 1537 2939 
Q 1816 3084 2150 3084 
Q 2853 3084 3261 2657 
Q 3669 2231 3669 1497 
Q 3669 778 3244 343 
Q 2819 -91 2113 -91 
Q 1303 -91 875 529 
Q 447 1150 447 2328 
Q 447 3434 972 4092 
Q 1497 4750 2381 4750 
Q 2619 4750 2861 4703 
Q 3103 4656 3366 4563 
z
" id="DejaVuSans-36" transform="scale(0.015625)"/>
       </defs>
       <use xlink:href="#DejaVuSans-36"/>
      </g>
     </g>
    </g>
    <g id="xtick_5">
     <g id="line2d_5">
      <g>
       <use style="stroke:#000000;stroke-width:0.8;" x="724.179839" xlink:href="#me4c39eafcb" y="640.8"/>
      </g>
     </g>
     <g id="text_5">
      <!-- 8 -->
      <g transform="translate(720.998589 655.398438)scale(0.1 -0.1)">
       <defs>
        <path d="M 2034 2216 
Q 1584 2216 1326 1975 
Q 1069 1734 1069 1313 
Q 1069 891 1326 650 
Q 1584 409 2034 409 
Q 2484 409 2743 651 
Q 3003 894 3003 1313 
Q 3003 1734 2745 1975 
Q 2488 2216 2034 2216 
z
M 1403 2484 
Q 997 2584 770 2862 
Q 544 3141 544 3541 
Q 544 4100 942 4425 
Q 1341 4750 2034 4750 
Q 2731 4750 3128 4425 
Q 3525 4100 3525 3541 
Q 3525 3141 3298 2862 
Q 3072 2584 2669 2484 
Q 3125 2378 3379 2068 
Q 3634 1759 3634 1313 
Q 3634 634 3220 271 
Q 2806 -91 2034 -91 
Q 1263 -91 848 271 
Q 434 634 434 1313 
Q 434 1759 690 2068 
Q 947 2378 1403 2484 
z
M 1172 3481 
Q 1172 3119 1398 2916 
Q 1625 2713 2034 2713 
Q 2441 2713 2670 2916 
Q 2900 3119 2900 3481 
Q 2900 3844 2670 4047 
Q 2441 4250 2034 4250 
Q 1625 4250 1398 4047 
Q 1172 3844 1172 3481 
z
" id="DejaVuSans-38" transform="scale(0.015625)"/>
       </defs>
       <use xlink:href="#DejaVuSans-38"/>
      </g>
     </g>
    </g>
    <g id="xtick_6">
     <g id="line2d_6">
      <g>
       <use style="stroke:#000000;stroke-width:0.8;" x="859.079345" xlink:href="#me4c39eafcb" y="640.8"/>
      </g>
     </g>
     <g id="text_6">
      <!-- 10 -->
      <g transform="translate(852.716845 655.398438)scale(0.1 -0.1)">
       <defs>
        <path d="M 794 531 
L 1825 531 
L 1825 4091 
L 703 3866 
L 703 4441 
L 1819 4666 
L 2450 4666 
L 2450 531 
L 3481 531 
L 3481 0 
L 794 0 
L 794 531 
z
" id="DejaVuSans-31" transform="scale(0.015625)"/>
       </defs>
       <use xlink:href="#DejaVuSans-31"/>
       <use x="63.623047" xlink:href="#DejaVuSans-30"/>
      </g>
     </g>
    </g>
    <g id="xtick_7">
     <g id="line2d_7">
      <g>
       <use style="stroke:#000000;stroke-width:0.8;" x="993.97885" xlink:href="#me4c39eafcb" y="640.8"/>
      </g>
     </g>
     <g id="text_7">
      <!-- 12 -->
      <g transform="translate(987.61635 655.398438)scale(0.1 -0.1)">
       <use xlink:href="#DejaVuSans-31"/>
       <use x="63.623047" xlink:href="#DejaVuSans-32"/>
      </g>
     </g>
    </g>
    <g id="text_8">
     <!-- Напряжение, В -->
     <g transform="translate(550.340625 669.076563)scale(0.1 -0.1)">
      <defs>
       <path d="M 628 4666 
L 1259 4666 
L 1259 2753 
L 3553 2753 
L 3553 4666 
L 4184 4666 
L 4184 0 
L 3553 0 
L 3553 2222 
L 1259 2222 
L 1259 0 
L 628 0 
L 628 4666 
z
" id="DejaVuSans-41d" transform="scale(0.015625)"/>
       <path d="M 2194 1759 
Q 1497 1759 1228 1600 
Q 959 1441 959 1056 
Q 959 750 1161 570 
Q 1363 391 1709 391 
Q 2188 391 2477 730 
Q 2766 1069 2766 1631 
L 2766 1759 
L 2194 1759 
z
M 3341 1997 
L 3341 0 
L 2766 0 
L 2766 531 
Q 2569 213 2275 61 
Q 1981 -91 1556 -91 
Q 1019 -91 701 211 
Q 384 513 384 1019 
Q 384 1609 779 1909 
Q 1175 2209 1959 2209 
L 2766 2209 
L 2766 2266 
Q 2766 2663 2505 2880 
Q 2244 3097 1772 3097 
Q 1472 3097 1187 3025 
Q 903 2953 641 2809 
L 641 3341 
Q 956 3463 1253 3523 
Q 1550 3584 1831 3584 
Q 2591 3584 2966 3190 
Q 3341 2797 3341 1997 
z
" id="DejaVuSans-430" transform="scale(0.015625)"/>
       <path d="M 3603 3500 
L 3603 0 
L 3025 0 
L 3025 3041 
L 1159 3041 
L 1159 0 
L 581 0 
L 581 3500 
L 3603 3500 
z
" id="DejaVuSans-43f" transform="scale(0.015625)"/>
       <path d="M 1159 525 
L 1159 -1331 
L 581 -1331 
L 581 3500 
L 1159 3500 
L 1159 2969 
Q 1341 3281 1617 3432 
Q 1894 3584 2278 3584 
Q 2916 3584 3314 3078 
Q 3713 2572 3713 1747 
Q 3713 922 3314 415 
Q 2916 -91 2278 -91 
Q 1894 -91 1617 61 
Q 1341 213 1159 525 
z
M 3116 1747 
Q 3116 2381 2855 2742 
Q 2594 3103 2138 3103 
Q 1681 3103 1420 2742 
Q 1159 2381 1159 1747 
Q 1159 1113 1420 752 
Q 1681 391 2138 391 
Q 2594 391 2855 752 
Q 3116 1113 3116 1747 
z
" id="DejaVuSans-440" transform="scale(0.015625)"/>
       <path d="M 1181 2491 
Q 1181 2231 1381 2084 
Q 1581 1938 1953 1938 
L 2728 1938 
L 2728 3041 
L 1953 3041 
Q 1581 3041 1381 2897 
Q 1181 2753 1181 2491 
z
M 363 0 
L 1431 1534 
Q 1069 1616 828 1830 
Q 588 2044 588 2491 
Q 588 2997 923 3248 
Q 1259 3500 1938 3500 
L 3306 3500 
L 3306 0 
L 2728 0 
L 2728 1478 
L 2013 1478 
L 981 0 
L 363 0 
z
" id="DejaVuSans-44f" transform="scale(0.015625)"/>
       <path d="M 2597 3500 
L 3169 3500 
L 3169 1856 
L 4697 3500 
L 5366 3500 
L 4109 2153 
L 5547 0 
L 4931 0 
L 3753 1769 
L 3169 1141 
L 3169 0 
L 2597 0 
L 2597 1141 
L 2013 1769 
L 834 0 
L 219 0 
L 1656 2153 
L 400 3500 
L 1069 3500 
L 2597 1856 
L 2597 3500 
z
" id="DejaVuSans-436" transform="scale(0.015625)"/>
       <path d="M 3597 1894 
L 3597 1613 
L 953 1613 
Q 991 1019 1311 708 
Q 1631 397 2203 397 
Q 2534 397 2845 478 
Q 3156 559 3463 722 
L 3463 178 
Q 3153 47 2828 -22 
Q 2503 -91 2169 -91 
Q 1331 -91 842 396 
Q 353 884 353 1716 
Q 353 2575 817 3079 
Q 1281 3584 2069 3584 
Q 2775 3584 3186 3129 
Q 3597 2675 3597 1894 
z
M 3022 2063 
Q 3016 2534 2758 2815 
Q 2500 3097 2075 3097 
Q 1594 3097 1305 2825 
Q 1016 2553 972 2059 
L 3022 2063 
z
" id="DejaVuSans-435" transform="scale(0.015625)"/>
       <path d="M 581 3500 
L 1159 3500 
L 1159 2072 
L 3025 2072 
L 3025 3500 
L 3603 3500 
L 3603 0 
L 3025 0 
L 3025 1613 
L 1159 1613 
L 1159 0 
L 581 0 
L 581 3500 
z
" id="DejaVuSans-43d" transform="scale(0.015625)"/>
       <path d="M 3578 3500 
L 3578 0 
L 3006 0 
L 3006 2809 
L 1319 0 
L 581 0 
L 581 3500 
L 1153 3500 
L 1153 697 
L 2838 3500 
L 3578 3500 
z
" id="DejaVuSans-438" transform="scale(0.015625)"/>
       <path d="M 750 794 
L 1409 794 
L 1409 256 
L 897 -744 
L 494 -744 
L 750 256 
L 750 794 
z
" id="DejaVuSans-2c" transform="scale(0.015625)"/>
       <path id="DejaVuSans-20" transform="scale(0.015625)"/>
       <path d="M 1259 2228 
L 1259 519 
L 2272 519 
Q 2781 519 3026 730 
Q 3272 941 3272 1375 
Q 3272 1813 3026 2020 
Q 2781 2228 2272 2228 
L 1259 2228 
z
M 1259 4147 
L 1259 2741 
L 2194 2741 
Q 2656 2741 2882 2914 
Q 3109 3088 3109 3444 
Q 3109 3797 2882 3972 
Q 2656 4147 2194 4147 
L 1259 4147 
z
M 628 4666 
L 2241 4666 
Q 2963 4666 3353 4366 
Q 3744 4066 3744 3513 
Q 3744 3084 3544 2831 
Q 3344 2578 2956 2516 
Q 3422 2416 3680 2098 
Q 3938 1781 3938 1306 
Q 3938 681 3513 340 
Q 3088 0 2303 0 
L 628 0 
L 628 4666 
z
" id="DejaVuSans-412" transform="scale(0.015625)"/>
      </defs>
      <use xlink:href="#DejaVuSans-41d"/>
      <use x="75.195312" xlink:href="#DejaVuSans-430"/>
      <use x="136.474609" xlink:href="#DejaVuSans-43f"/>
      <use x="201.855469" xlink:href="#DejaVuSans-440"/>
      <use x="265.332031" xlink:href="#DejaVuSans-44f"/>
      <use x="325.488281" xlink:href="#DejaVuSans-436"/>
      <use x="415.576172" xlink:href="#DejaVuSans-435"/>
      <use x="477.099609" xlink:href="#DejaVuSans-43d"/>
      <use x="542.480469" xlink:href="#DejaVuSans-438"/>
      <use x="607.470703" xlink:href="#DejaVuSans-435"/>
      <use x="668.994141" xlink:href="#DejaVuSans-2c"/>
      <use x="700.78125" xlink:href="#DejaVuSans-20"/>
      <use x="732.568359" xlink:href="#DejaVuSans-412"/>
     </g>
    </g>
   </g>
   <g id="matplotlib.axis_2">
    <g id="ytick_1">
     <g id="line2d_8">
      <defs>
       <path d="M 0 0 
L -3.5 0 
" id="m8985563140" style="stroke:#000000;stroke-width:0.8;"/>
      </defs>
      <g>
       <use style="stroke:#000000;stroke-width:0.8;" x="144" xlink:href="#m8985563140" y="617.64878"/>
      </g>
     </g>
     <g id="text_9">
      <!-- 0.0 -->
      <g transform="translate(121.096875 621.447999)scale(0.1 -0.1)">
       <defs>
        <path d="M 684 794 
L 1344 794 
L 1344 0 
L 684 0 
L 684 794 
z
" id="DejaVuSans-2e" transform="scale(0.015625)"/>
       </defs>
       <use xlink:href="#DejaVuSans-30"/>
       <use x="63.623047" xlink:href="#DejaVuSans-2e"/>
       <use x="95.410156" xlink:href="#DejaVuSans-30"/>
      </g>
     </g>
    </g>
    <g id="ytick_2">
     <g id="line2d_9">
      <g>
       <use style="stroke:#000000;stroke-width:0.8;" x="144" xlink:href="#m8985563140" y="524.522395"/>
      </g>
     </g>
     <g id="text_10">
      <!-- 0.5 -->
      <g transform="translate(121.096875 528.321613)scale(0.1 -0.1)">
       <defs>
        <path d="M 691 4666 
L 3169 4666 
L 3169 4134 
L 1269 4134 
L 1269 2991 
Q 1406 3038 1543 3061 
Q 1681 3084 1819 3084 
Q 2600 3084 3056 2656 
Q 3513 2228 3513 1497 
Q 3513 744 3044 326 
Q 2575 -91 1722 -91 
Q 1428 -91 1123 -41 
Q 819 9 494 109 
L 494 744 
Q 775 591 1075 516 
Q 1375 441 1709 441 
Q 2250 441 2565 725 
Q 2881 1009 2881 1497 
Q 2881 1984 2565 2268 
Q 2250 2553 1709 2553 
Q 1456 2553 1204 2497 
Q 953 2441 691 2322 
L 691 4666 
z
" id="DejaVuSans-35" transform="scale(0.015625)"/>
       </defs>
       <use xlink:href="#DejaVuSans-30"/>
       <use x="63.623047" xlink:href="#DejaVuSans-2e"/>
       <use x="95.410156" xlink:href="#DejaVuSans-35"/>
      </g>
     </g>
    </g>
    <g id="ytick_3">
     <g id="line2d_10">
      <g>
       <use style="stroke:#000000;stroke-width:0.8;" x="144" xlink:href="#m8985563140" y="431.396009"/>
      </g>
     </g>
     <g id="text_11">
      <!-- 1.0 -->
      <g transform="translate(121.096875 435.195228)scale(0.1 -0.1)">
       <use xlink:href="#DejaVuSans-31"/>
       <use x="63.623047" xlink:href="#DejaVuSans-2e"/>
       <use x="95.410156" xlink:href="#DejaVuSans-30"/>
      </g>
     </g>
    </g>
    <g id="ytick_4">
     <g id="line2d_11">
      <g>
       <use style="stroke:#000000;stroke-width:0.8;" x="144" xlink:href="#m8985563140" y="338.269623"/>
      </g>
     </g>
     <g id="text_12">
      <!-- 1.5 -->
      <g transform="translate(121.096875 342.068842)scale(0.1 -0.1)">
       <use xlink:href="#DejaVuSans-31"/>
       <use x="63.623047" xlink:href="#DejaVuSans-2e"/>
       <use x="95.410156" xlink:href="#DejaVuSans-35"/>
      </g>
     </g>
    </g>
    <g id="ytick_5">
     <g id="line2d_12">
      <g>
       <use style="stroke:#000000;stroke-width:0.8;" x="144" xlink:href="#m8985563140" y="245.143237"/>
      </g>
     </g>
     <g id="text_13">
      <!-- 2.0 -->
      <g transform="translate(121.096875 248.942456)scale(0.1 -0.1)">
       <use xlink:href="#DejaVuSans-32"/>
       <use x="63.623047" xlink:href="#DejaVuSans-2e"/>
       <use x="95.410156" xlink:href="#DejaVuSans-30"/>
      </g>
     </g>
    </g>
    <g id="ytick_6">
     <g id="line2d_13">
      <g>
       <use style="stroke:#000000;stroke-width:0.8;" x="144" xlink:href="#m8985563140" y="152.016851"/>
      </g>
     </g>
     <g id="text_14">
      <!-- 2.5 -->
      <g transform="translate(121.096875 155.81607)scale(0.1 -0.1)">
       <use xlink:href="#DejaVuSans-32"/>
       <use x="63.623047" xlink:href="#DejaVuSans-2e"/>
       <use x="95.410156" xlink:href="#DejaVuSans-35"/>
      </g>
     </g>
    </g>
    <g id="text_15">
     <!-- Время, c -->
     <g transform="translate(115.017187 385.988281)rotate(-90)scale(0.1 -0.1)">
      <defs>
       <path d="M 581 3500 
L 1422 3500 
L 2416 1156 
L 3413 3500 
L 4247 3500 
L 4247 0 
L 3669 0 
L 3669 2950 
L 2703 672 
L 2128 672 
L 1159 2950 
L 1159 0 
L 581 0 
L 581 3500 
z
" id="DejaVuSans-43c" transform="scale(0.015625)"/>
       <path d="M 3122 3366 
L 3122 2828 
Q 2878 2963 2633 3030 
Q 2388 3097 2138 3097 
Q 1578 3097 1268 2742 
Q 959 2388 959 1747 
Q 959 1106 1268 751 
Q 1578 397 2138 397 
Q 2388 397 2633 464 
Q 2878 531 3122 666 
L 3122 134 
Q 2881 22 2623 -34 
Q 2366 -91 2075 -91 
Q 1284 -91 818 406 
Q 353 903 353 1747 
Q 353 2603 823 3093 
Q 1294 3584 2113 3584 
Q 2378 3584 2631 3529 
Q 2884 3475 3122 3366 
z
" id="DejaVuSans-63" transform="scale(0.015625)"/>
      </defs>
      <use xlink:href="#DejaVuSans-412"/>
      <use x="68.603516" xlink:href="#DejaVuSans-440"/>
      <use x="132.080078" xlink:href="#DejaVuSans-435"/>
      <use x="193.603516" xlink:href="#DejaVuSans-43c"/>
      <use x="269.042969" xlink:href="#DejaVuSans-44f"/>
      <use x="329.199219" xlink:href="#DejaVuSans-2c"/>
      <use x="360.986328" xlink:href="#DejaVuSans-20"/>
      <use x="392.773438" xlink:href="#DejaVuSans-63"/>
     </g>
    </g>
   </g>
   <g id="line2d_14">
    <path clip-path="url(#p630c2a478e)" d="M 184.581818 615.6 
L 185.486652 607.404878 
L 188.201155 595.112195 
L 189.10599 586.917073 
L 190.915658 578.721951 
L 191.820493 570.526829 
L 192.725327 570.526829 
L 193.630161 562.331707 
L 194.534995 562.331707 
L 195.43983 554.136585 
L 196.344664 554.136585 
L 197.249498 541.843902 
L 209.012344 488.57561 
L 209.917178 488.57561 
L 210.822013 480.380488 
L 214.44135 463.990244 
L 215.346184 463.990244 
L 216.251019 455.795122 
L 217.155853 455.795122 
L 224.394527 423.014634 
L 225.299362 423.014634 
L 228.918699 406.62439 
L 229.823533 406.62439 
L 233.44287 390.234146 
L 234.347704 390.234146 
L 236.157373 382.039024 
L 237.062207 382.039024 
L 238.871876 373.843902 
L 239.77671 373.843902 
L 241.586379 365.64878 
L 242.491213 365.64878 
L 244.300882 357.453659 
L 246.11055 357.453659 
L 247.015385 349.258537 
L 247.920219 349.258537 
L 248.825053 345.160976 
L 249.729888 345.160976 
L 251.539556 336.965854 
L 252.44439 336.965854 
L 253.349225 332.868293 
L 254.254059 332.868293 
L 256.063728 324.673171 
L 257.873396 324.673171 
L 259.683065 316.478049 
L 261.492733 316.478049 
L 263.302402 308.282927 
L 264.207236 308.282927 
L 265.112071 304.185366 
L 266.016905 304.185366 
L 266.921739 300.087805 
L 267.826573 300.087805 
L 268.731408 295.990244 
L 269.636242 295.990244 
L 270.541076 291.892683 
L 273.255579 291.892683 
L 274.160413 283.697561 
L 275.970082 283.697561 
L 276.874916 279.6 
L 277.779751 279.6 
L 278.684585 275.502439 
L 280.494254 275.502439 
L 281.399088 271.404878 
L 282.303922 271.404878 
L 283.208756 267.307317 
L 284.113591 267.307317 
L 285.018425 263.209756 
L 287.732928 263.209756 
L 289.542597 255.014634 
L 291.352265 255.014634 
L 292.257099 250.917073 
L 294.066768 250.917073 
L 294.971602 246.819512 
L 295.876437 246.819512 
L 296.781271 242.721951 
L 299.495774 242.721951 
L 300.400608 238.62439 
L 301.305442 238.62439 
L 302.210277 234.526829 
L 304.019945 234.526829 
L 304.92478 230.429268 
L 307.639282 230.429268 
L 309.448951 222.234146 
L 314.877957 222.234146 
L 316.687625 214.039024 
L 320.306963 214.039024 
L 321.211797 209.941463 
L 323.9263 209.941463 
L 324.831134 205.843902 
L 326.640803 205.843902 
L 327.545637 201.746341 
L 329.355306 201.746341 
L 330.26014 197.64878 
L 333.879477 197.64878 
L 334.784311 193.55122 
L 338.403649 193.55122 
L 339.308483 189.453659 
L 342.92782 189.453659 
L 343.832654 185.356098 
L 347.451991 185.356098 
L 348.356826 181.258537 
L 350.166494 181.258537 
L 351.071329 177.160976 
L 351.976163 181.258537 
L 352.880997 177.160976 
L 355.5955 177.160976 
L 356.500334 173.063415 
L 362.834175 173.063415 
L 363.739009 168.965854 
L 368.26318 168.965854 
L 369.168015 164.868293 
L 373.692186 164.868293 
L 374.59702 160.770732 
L 378.216358 160.770732 
L 379.121192 156.673171 
L 389.074369 156.673171 
L 389.979203 152.57561 
L 397.217878 152.57561 
L 398.122712 148.478049 
L 399.027546 152.57561 
L 399.932381 148.478049 
L 404.456552 148.478049 
L 405.361386 144.380488 
L 406.266221 148.478049 
L 407.171055 144.380488 
L 415.314564 144.380488 
L 416.219398 140.282927 
L 424.362907 140.282927 
L 425.267741 136.185366 
L 433.41125 136.185366 
L 434.316084 132.087805 
L 435.220918 136.185366 
L 436.125753 136.185366 
L 437.030587 132.087805 
L 445.174095 132.087805 
L 446.07893 127.990244 
L 446.983764 132.087805 
L 447.888598 132.087805 
L 448.793433 127.990244 
L 449.698267 132.087805 
L 450.603101 132.087805 
L 451.507936 127.990244 
L 458.74661 127.990244 
L 459.651444 123.892683 
L 460.556279 127.990244 
L 461.461113 127.990244 
L 462.365947 123.892683 
L 463.270781 123.892683 
L 464.175616 127.990244 
L 466.890119 127.990244 
L 467.794953 123.892683 
L 484.986804 123.892683 
L 485.891639 119.795122 
L 486.796473 123.892683 
L 487.701307 119.795122 
L 507.607662 119.795122 
L 508.512496 115.697561 
L 509.41733 115.697561 
L 510.322165 119.795122 
L 511.226999 119.795122 
L 512.131833 115.697561 
L 513.036668 115.697561 
L 513.941502 119.795122 
L 514.846336 115.697561 
L 530.228519 115.697561 
L 531.133354 111.6 
L 532.038188 119.795122 
L 532.943022 123.892683 
L 533.847856 123.892683 
L 534.752691 132.087805 
L 536.562359 140.282927 
L 537.467194 148.478049 
L 538.372028 148.478049 
L 539.276862 156.673171 
L 540.181697 156.673171 
L 541.086531 164.868293 
L 542.896199 173.063415 
L 543.801034 173.063415 
L 544.705868 181.258537 
L 545.610702 181.258537 
L 554.659045 222.234146 
L 555.56388 222.234146 
L 560.088051 242.721951 
L 560.992885 242.721951 
L 561.89772 250.917073 
L 562.802554 250.917073 
L 563.707388 255.014634 
L 564.612223 255.014634 
L 569.136394 275.502439 
L 570.041228 275.502439 
L 573.660566 291.892683 
L 574.5654 291.892683 
L 576.375068 300.087805 
L 577.279903 300.087805 
L 578.184737 304.185366 
L 579.089571 304.185366 
L 581.804074 316.478049 
L 582.708908 316.478049 
L 583.613743 320.57561 
L 584.518577 320.57561 
L 586.328246 328.770732 
L 587.23308 328.770732 
L 589.042749 336.965854 
L 589.947583 336.965854 
L 590.852417 341.063415 
L 591.757251 341.063415 
L 592.662086 345.160976 
L 593.56692 345.160976 
L 594.471754 349.258537 
L 595.376589 349.258537 
L 596.281423 353.356098 
L 597.186257 353.356098 
L 598.091092 357.453659 
L 598.995926 357.453659 
L 599.90076 361.55122 
L 600.805594 361.55122 
L 602.615263 369.746341 
L 604.424932 369.746341 
L 605.329766 373.843902 
L 606.2346 373.843902 
L 607.139434 377.941463 
L 608.044269 377.941463 
L 609.853937 386.136585 
L 611.663606 386.136585 
L 612.56844 390.234146 
L 613.473275 390.234146 
L 614.378109 394.331707 
L 615.282943 394.331707 
L 616.187777 398.429268 
L 617.092612 398.429268 
L 617.997446 402.526829 
L 619.807115 402.526829 
L 620.711949 406.62439 
L 621.616783 406.62439 
L 622.521618 410.721951 
L 623.426452 410.721951 
L 624.331286 414.819512 
L 625.23612 414.819512 
L 626.140955 418.917073 
L 628.855458 418.917073 
L 630.665126 427.112195 
L 632.474795 427.112195 
L 633.379629 431.209756 
L 634.284463 431.209756 
L 635.189298 435.307317 
L 637.903801 435.307317 
L 638.808635 439.404878 
L 639.713469 439.404878 
L 640.618303 443.502439 
L 642.427972 443.502439 
L 643.332806 447.6 
L 644.237641 447.6 
L 645.142475 451.697561 
L 646.952144 451.697561 
L 647.856978 455.795122 
L 650.571481 455.795122 
L 651.476315 459.892683 
L 653.285984 459.892683 
L 654.190818 463.990244 
L 656.000486 463.990244 
L 656.905321 468.087805 
L 659.619824 468.087805 
L 660.524658 472.185366 
L 661.429492 472.185366 
L 662.334327 476.282927 
L 665.048829 476.282927 
L 665.953664 480.380488 
L 667.763332 480.380488 
L 668.668167 484.478049 
L 669.573001 484.478049 
L 670.477835 488.57561 
L 675.906841 488.57561 
L 676.811675 492.673171 
L 678.621344 492.673171 
L 679.526178 496.770732 
L 681.335847 496.770732 
L 682.240681 500.868293 
L 685.860018 500.868293 
L 686.764853 504.965854 
L 689.479355 504.965854 
L 690.38419 509.063415 
L 692.193858 509.063415 
L 693.098693 513.160976 
L 696.71803 513.160976 
L 697.622864 517.258537 
L 701.242201 517.258537 
L 702.147036 521.356098 
L 703.05187 517.258537 
L 703.956704 521.356098 
L 705.766373 521.356098 
L 706.671207 525.453659 
L 710.290544 525.453659 
L 711.195379 529.55122 
L 714.814716 529.55122 
L 715.71955 533.64878 
L 719.338887 533.64878 
L 720.243721 537.746341 
L 725.672727 537.746341 
L 726.577562 541.843902 
L 730.196899 541.843902 
L 731.101733 545.941463 
L 734.72107 545.941463 
L 735.625905 550.039024 
L 736.530739 545.941463 
L 737.435573 550.039024 
L 740.150076 550.039024 
L 741.05491 554.136585 
L 750.103253 554.136585 
L 751.008088 558.234146 
L 757.341928 558.234146 
L 758.246762 562.331707 
L 762.770933 562.331707 
L 763.675768 566.429268 
L 771.819276 566.429268 
L 772.724111 570.526829 
L 781.772454 570.526829 
L 782.677288 574.62439 
L 789.915962 574.62439 
L 790.820797 578.721951 
L 791.725631 574.62439 
L 792.630465 578.721951 
L 802.583642 578.721951 
L 803.488477 582.819512 
L 811.631985 582.819512 
L 812.53682 586.917073 
L 827.014168 586.917073 
L 827.919003 591.014634 
L 842.396351 591.014634 
L 843.301186 595.112195 
L 844.20602 591.014634 
L 845.110854 595.112195 
L 859.588203 595.112195 
L 860.493037 599.209756 
L 879.494558 599.209756 
L 880.399392 603.307317 
L 881.304226 599.209756 
L 884.018729 599.209756 
L 884.923563 603.307317 
L 885.828398 603.307317 
L 886.733232 599.209756 
L 887.638066 603.307317 
L 905.734752 603.307317 
L 906.639587 607.404878 
L 907.544421 603.307317 
L 914.783095 603.307317 
L 915.687929 607.404878 
L 917.497598 607.404878 
L 918.402432 603.307317 
L 919.307267 607.404878 
L 943.737793 607.404878 
L 944.642627 611.502439 
L 945.547461 607.404878 
L 947.35713 607.404878 
L 948.261964 611.502439 
L 995.313348 611.502439 
L 996.218182 615.6 
L 996.218182 615.6 
" style="fill:none;stroke:#0000ff;stroke-linecap:square;"/>
   </g>
   <g id="patch_3">
    <path d="M 144 640.8 
L 144 86.4 
" style="fill:none;stroke:#000000;stroke-linecap:square;stroke-linejoin:miter;stroke-width:0.8;"/>
   </g>
   <g id="patch_4">
    <path d="M 1036.8 640.8 
L 1036.8 86.4 
" style="fill:none;stroke:#000000;stroke-linecap:square;stroke-linejoin:miter;stroke-width:0.8;"/>
   </g>
   <g id="patch_5">
    <path d="M 144 640.8 
L 1036.8 640.8 
" style="fill:none;stroke:#000000;stroke-linecap:square;stroke-linejoin:miter;stroke-width:0.8;"/>
   </g>
   <g id="patch_6">
    <path d="M 144 86.4 
L 1036.8 86.4 
" style="fill:none;stroke:#000000;stroke-linecap:square;stroke-linejoin:miter;stroke-width:0.8;"/>
   </g>
   <g id="text_16">
    <!-- Процесс заряда и разряда конденсатора в RC-цепочке -->
    <g transform="translate(416.063437 80.4)scale(0.12 -0.12)">
     <defs>
      <path d="M 4184 4666 
L 4184 0 
L 3553 0 
L 3553 4134 
L 1259 4134 
L 1259 0 
L 628 0 
L 628 4666 
L 4184 4666 
z
" id="DejaVuSans-41f" transform="scale(0.015625)"/>
      <path d="M 1959 3097 
Q 1497 3097 1228 2736 
Q 959 2375 959 1747 
Q 959 1119 1226 758 
Q 1494 397 1959 397 
Q 2419 397 2687 759 
Q 2956 1122 2956 1747 
Q 2956 2369 2687 2733 
Q 2419 3097 1959 3097 
z
M 1959 3584 
Q 2709 3584 3137 3096 
Q 3566 2609 3566 1747 
Q 3566 888 3137 398 
Q 2709 -91 1959 -91 
Q 1206 -91 779 398 
Q 353 888 353 1747 
Q 353 2609 779 3096 
Q 1206 3584 1959 3584 
z
" id="DejaVuSans-43e" transform="scale(0.015625)"/>
      <path d="M 3603 0 
L 581 0 
L 581 3500 
L 1159 3500 
L 1159 459 
L 3025 459 
L 3025 3500 
L 3603 3500 
L 3603 459 
L 4063 459 
L 4063 -884 
L 3603 -884 
L 3603 0 
z
" id="DejaVuSans-446" transform="scale(0.015625)"/>
      <path d="M 3122 3366 
L 3122 2828 
Q 2878 2963 2633 3030 
Q 2388 3097 2138 3097 
Q 1578 3097 1268 2742 
Q 959 2388 959 1747 
Q 959 1106 1268 751 
Q 1578 397 2138 397 
Q 2388 397 2633 464 
Q 2878 531 3122 666 
L 3122 134 
Q 2881 22 2623 -34 
Q 2366 -91 2075 -91 
Q 1284 -91 818 406 
Q 353 903 353 1747 
Q 353 2603 823 3093 
Q 1294 3584 2113 3584 
Q 2378 3584 2631 3529 
Q 2884 3475 3122 3366 
z
" id="DejaVuSans-441" transform="scale(0.015625)"/>
      <path d="M 2206 1888 
Q 2594 1813 2809 1584 
Q 3025 1356 3025 1019 
Q 3025 478 2622 193 
Q 2219 -91 1475 -91 
Q 1225 -91 961 -47 
Q 697 -3 416 84 
L 416 619 
Q 638 503 903 445 
Q 1169 388 1459 388 
Q 1931 388 2195 563 
Q 2459 738 2459 1019 
Q 2459 1294 2225 1461 
Q 1991 1628 1563 1628 
L 1100 1628 
L 1100 2103 
L 1584 2103 
Q 1947 2103 2158 2242 
Q 2369 2381 2369 2600 
Q 2369 2800 2151 2944 
Q 1934 3088 1563 3088 
Q 1341 3088 1089 3047 
Q 838 3006 534 2916 
L 534 3438 
Q 841 3513 1106 3550 
Q 1372 3588 1609 3588 
Q 2222 3588 2576 3342 
Q 2931 3097 2931 2656 
Q 2931 2366 2743 2164 
Q 2556 1963 2206 1888 
z
" id="DejaVuSans-437" transform="scale(0.015625)"/>
      <path d="M 1384 459 
L 3053 459 
L 3053 3041 
L 1844 3041 
L 1844 2603 
Q 1844 1316 1475 628 
L 1384 459 
z
M 550 459 
Q 834 584 959 850 
Q 1266 1509 1266 2838 
L 1266 3500 
L 3631 3500 
L 3631 459 
L 4091 459 
L 4091 -884 
L 3631 -884 
L 3631 0 
L 794 0 
L 794 -884 
L 334 -884 
L 334 459 
L 550 459 
z
" id="DejaVuSans-434" transform="scale(0.015625)"/>
      <path d="M 581 3500 
L 1153 3500 
L 1153 1856 
L 2775 3500 
L 3481 3500 
L 2144 2147 
L 3653 0 
L 3009 0 
L 1769 1766 
L 1153 1141 
L 1153 0 
L 581 0 
L 581 3500 
z
" id="DejaVuSans-43a" transform="scale(0.015625)"/>
      <path d="M 188 3500 
L 3541 3500 
L 3541 3041 
L 2147 3041 
L 2147 0 
L 1581 0 
L 1581 3041 
L 188 3041 
L 188 3500 
z
" id="DejaVuSans-442" transform="scale(0.015625)"/>
      <path d="M 1156 1613 
L 1156 459 
L 1975 459 
Q 2369 459 2575 607 
Q 2781 756 2781 1038 
Q 2781 1319 2575 1466 
Q 2369 1613 1975 1613 
L 1156 1613 
z
M 1156 3041 
L 1156 2072 
L 1913 2072 
Q 2238 2072 2444 2201 
Q 2650 2331 2650 2563 
Q 2650 2794 2444 2917 
Q 2238 3041 1913 3041 
L 1156 3041 
z
M 581 3500 
L 1950 3500 
Q 2566 3500 2897 3275 
Q 3228 3050 3228 2634 
Q 3228 2313 3059 2123 
Q 2891 1934 2559 1888 
Q 2956 1813 3175 1575 
Q 3394 1338 3394 981 
Q 3394 513 3033 256 
Q 2672 0 2003 0 
L 581 0 
L 581 3500 
z
" id="DejaVuSans-432" transform="scale(0.015625)"/>
      <path d="M 2841 2188 
Q 3044 2119 3236 1894 
Q 3428 1669 3622 1275 
L 4263 0 
L 3584 0 
L 2988 1197 
Q 2756 1666 2539 1819 
Q 2322 1972 1947 1972 
L 1259 1972 
L 1259 0 
L 628 0 
L 628 4666 
L 2053 4666 
Q 2853 4666 3247 4331 
Q 3641 3997 3641 3322 
Q 3641 2881 3436 2590 
Q 3231 2300 2841 2188 
z
M 1259 4147 
L 1259 2491 
L 2053 2491 
Q 2509 2491 2742 2702 
Q 2975 2913 2975 3322 
Q 2975 3731 2742 3939 
Q 2509 4147 2053 4147 
L 1259 4147 
z
" id="DejaVuSans-52" transform="scale(0.015625)"/>
      <path d="M 4122 4306 
L 4122 3641 
Q 3803 3938 3442 4084 
Q 3081 4231 2675 4231 
Q 1875 4231 1450 3742 
Q 1025 3253 1025 2328 
Q 1025 1406 1450 917 
Q 1875 428 2675 428 
Q 3081 428 3442 575 
Q 3803 722 4122 1019 
L 4122 359 
Q 3791 134 3420 21 
Q 3050 -91 2638 -91 
Q 1578 -91 968 557 
Q 359 1206 359 2328 
Q 359 3453 968 4101 
Q 1578 4750 2638 4750 
Q 3056 4750 3426 4639 
Q 3797 4528 4122 4306 
z
" id="DejaVuSans-43" transform="scale(0.015625)"/>
      <path d="M 313 2009 
L 1997 2009 
L 1997 1497 
L 313 1497 
L 313 2009 
z
" id="DejaVuSans-2d" transform="scale(0.015625)"/>
      <path d="M 2625 0 
L 2625 1472 
L 1553 1472 
Q 1075 1472 756 1769 
Q 469 2038 469 2613 
L 469 3500 
L 1044 3500 
L 1044 2666 
Q 1044 2300 1206 2116 
Q 1372 1931 1697 1931 
L 2625 1931 
L 2625 3500 
L 3200 3500 
L 3200 0 
L 2625 0 
z
" id="DejaVuSans-447" transform="scale(0.015625)"/>
     </defs>
     <use xlink:href="#DejaVuSans-41f"/>
     <use x="75.195312" xlink:href="#DejaVuSans-440"/>
     <use x="138.671875" xlink:href="#DejaVuSans-43e"/>
     <use x="199.853516" xlink:href="#DejaVuSans-446"/>
     <use x="267.919922" xlink:href="#DejaVuSans-435"/>
     <use x="329.443359" xlink:href="#DejaVuSans-441"/>
     <use x="384.423828" xlink:href="#DejaVuSans-441"/>
     <use x="439.404297" xlink:href="#DejaVuSans-20"/>
     <use x="471.191406" xlink:href="#DejaVuSans-437"/>
     <use x="524.365234" xlink:href="#DejaVuSans-430"/>
     <use x="585.644531" xlink:href="#DejaVuSans-440"/>
     <use x="649.121094" xlink:href="#DejaVuSans-44f"/>
     <use x="709.277344" xlink:href="#DejaVuSans-434"/>
     <use x="778.417969" xlink:href="#DejaVuSans-430"/>
     <use x="839.697266" xlink:href="#DejaVuSans-20"/>
     <use x="871.484375" xlink:href="#DejaVuSans-438"/>
     <use x="936.474609" xlink:href="#DejaVuSans-20"/>
     <use x="968.261719" xlink:href="#DejaVuSans-440"/>
     <use x="1031.738281" xlink:href="#DejaVuSans-430"/>
     <use x="1093.017578" xlink:href="#DejaVuSans-437"/>
     <use x="1146.191406" xlink:href="#DejaVuSans-440"/>
     <use x="1209.667969" xlink:href="#DejaVuSans-44f"/>
     <use x="1269.824219" xlink:href="#DejaVuSans-434"/>
     <use x="1338.964844" xlink:href="#DejaVuSans-430"/>
     <use x="1400.244141" xlink:href="#DejaVuSans-20"/>
     <use x="1432.03125" xlink:href="#DejaVuSans-43a"/>
     <use x="1492.431641" xlink:href="#DejaVuSans-43e"/>
     <use x="1553.613281" xlink:href="#DejaVuSans-43d"/>
     <use x="1618.994141" xlink:href="#DejaVuSans-434"/>
     <use x="1688.134766" xlink:href="#DejaVuSans-435"/>
     <use x="1749.658203" xlink:href="#DejaVuSans-43d"/>
     <use x="1815.039062" xlink:href="#DejaVuSans-441"/>
     <use x="1870.019531" xlink:href="#DejaVuSans-430"/>
     <use x="1931.298828" xlink:href="#DejaVuSans-442"/>
     <use x="1989.550781" xlink:href="#DejaVuSans-43e"/>
     <use x="2050.732422" xlink:href="#DejaVuSans-440"/>
     <use x="2114.208984" xlink:href="#DejaVuSans-430"/>
     <use x="2175.488281" xlink:href="#DejaVuSans-20"/>
     <use x="2207.275391" xlink:href="#DejaVuSans-432"/>
     <use x="2266.210938" xlink:href="#DejaVuSans-20"/>
     <use x="2297.998047" xlink:href="#DejaVuSans-52"/>
     <use x="2362.480469" xlink:href="#DejaVuSans-43"/>
     <use x="2432.304688" xlink:href="#DejaVuSans-2d"/>
     <use x="2468.388672" xlink:href="#DejaVuSans-446"/>
     <use x="2536.455078" xlink:href="#DejaVuSans-435"/>
     <use x="2597.978516" xlink:href="#DejaVuSans-43f"/>
     <use x="2663.359375" xlink:href="#DejaVuSans-43e"/>
     <use x="2724.541016" xlink:href="#DejaVuSans-447"/>
     <use x="2783.623047" xlink:href="#DejaVuSans-43a"/>
     <use x="2844.023438" xlink:href="#DejaVuSans-435"/>
    </g>
   </g>
  </g>
 </g>
 <defs>
  <clipPath id="p630c2a478e">
   <rect height="554.4" width="892.8" x="144" y="86.4"/>
  </clipPath>
 </defs>
</svg>
